<svg xmlns="http://www.w3.org/2000/svg" viewBox="0 0 64 64" fill="none">
  <rect width="64" height="64" rx="12" fill="#FFFFFF"/>
  <!-- Gear -->
  <g stroke="#1E5BAA" stroke-width="3.2" stroke-linecap="round" stroke-linejoin="round" fill="none">
    <path d="M32 8 L32 14 M32 50 L32 56 M8 32 L14 32 M50 32 L56 32 M15 15 L19 19 M45 45 L49 49 M49 15 L45 19 M19 45 L15 49"/>
    <circle cx="32" cy="32" r="18"/>
  </g>
  <!-- Chip -->
  <rect x="24" y="24" width="16" height="16" rx="2" fill="#FFFFFF" stroke="#1E5BAA" stroke-width="2.4"/>
  <g stroke="#1E5BAA" stroke-width="2" stroke-linecap="round">
    <line x1="28" y1="22" x2="28" y2="24"/>
    <line x1="32" y1="22" x2="32" y2="24"/>
    <line x1="36" y1="22" x2="36" y2="24"/>
    <line x1="28" y1="40" x2="28" y2="42"/>
    <line x1="32" y1="40" x2="32" y2="42"/>
    <line x1="36" y1="40" x2="36" y2="42"/>
    <line x1="22" y1="28" x2="24" y2="28"/>
    <line x1="22" y1="32" x2="24" y2="32"/>
    <line x1="22" y1="36" x2="24" y2="36"/>
    <line x1="40" y1="28" x2="42" y2="28"/>
    <line x1="40" y1="32" x2="42" y2="32"/>
    <line x1="40" y1="36" x2="42" y2="36"/>
  </g>
  <!-- Inner accent dot (NanoCura yellow) -->
  <circle cx="32" cy="32" r="2.4" fill="#F5B82E"/>
</svg>
